# xmcd CD database file
#
# Track frame offsets:
#	151
#	14021
#	27733
#	42050
#	55566
#	70932
#	85105
#	98399
#	112163
#	126131
#	137034
#	150712
#	164159
#	177774
#	191024
#	203741
#	216058
#	229607
#	242997
#	255492
#
# Disc length: 3595 seconds
#
# Revision: 0
# Processed by: cddbd v1.5.2PL0 Copyright (c) Steve Scherf et al.
# Submitted via: CDex 1.70beta2
#
DISCID=150e0914
DTITLE=Firehouse Five Plus Two - Firehouse Five Plus Two
DYEAR=2001
DGENRE=Jazz
TTITLE0=Tiger Rag
TTITLE1=Yes Sir! That's My Baby
TTITLE2=St. Louis Blues
TTITLE3=12th Street Rag
TTITLE4=Wabash Blues
TTITLE5=Sweet Georgia Brown
TTITLE6=Frankie and Johnny
TTITLE7=Copenhagen
TTITLE8=Lonesome Mama Blues
TTITLE9=Chinatown, My Chinatown
TTITLE10=South
TTITLE11=Pagan Love Song
TTITLE12=Riverside Blues
TTITLE13=Everybody Loves My Baby
TTITLE14=Blues My Naughty Sweetie Gives to Me
TTITLE15=Red Hot River Valley
TTITLE16=The World is Waiting for the Sunrise
TTITLE17=Firehouse Stomp
TTITLE18=Brass Bell
TTITLE19=Fireman's Lament
EXTD=YEAR: 2001
EXTT0=
EXTT1=
EXTT2=
EXTT3=
EXTT4=
EXTT5=
EXTT6=
EXTT7=
EXTT8=
EXTT9=
EXTT10=
EXTT11=
EXTT12=
EXTT13=
EXTT14=
EXTT15=
EXTT16=
EXTT17=
EXTT18=
EXTT19=
PLAYORDER=
